<?xml version="1.0" encoding="UTF-8" standalone="no"?>
<svg xmlns="http://www.w3.org/2000/svg" width="300" height="300">
  <path d="M35.789062 12.011719c-1.818974-.065978-3.649239.022398-5.458984.261719-4.019617.532099-7.943198 1.809331-11.451172 3.794921-3.069021 1.73714-5.819195 4.016394-8.035156 6.814453-3.0148741 4.143011-3.8057411 9.343911-4.796875 14.244141 3.2356741 2.13949 6.723449 4.089578 10.404297 5.429688 2.735853.99606 5.577295 1.655344 8.501953 1.802734.69049-.066268 1.391502-.149237 2.087891-.214844l-.720704-2.017578.90625-.324219.800782 2.240235c.503093-.050221 1.003073-.097737 1.505859-.15625l-.921875-2.580078.90625-.322266 1 2.800781c.523845-.069409 1.026912-.219563 1.546875-.30664l-1.080078-3.019532.90625-.324218 1.128906 3.154296c.487006-.094908.978488-.168947 1.458985-.287109l-1.203125-3.361328.908203-.324219 1.248047 3.492188c.414496-.118438.789915-.360411 1.197265-.501953l-1.224609-3.427735.90625-.324218 1.208984 3.380859c.429957-.172127.863911-.332388 1.283203-.537109l-1.183593-3.310547.90625-.324219 1.167968 3.261719c.10503-.058644.22392-.075631.328125-.136719.320137-.139278.606194-.33602.917969-.490234l-1.109375-3.101563.90625-.324219 1.060547 2.96875c.403162-.222553.831372-.403582 1.21875-.65039l-.992187-2.777344.90625-.324219.894531 2.5c6.267341-4.403893 10.252008-11.921177 10.34375-19.597656-4.121279-2.50734-8.272717-5.164656-12.982422-6.416016-1.769795-.37774-3.57751-.598085-5.396485-.664062zm-.234374 4.992187c1.509164.051594 3.001226.230667 4.466796.535156 3.039738.827641 5.93024 2.423237 8.91211 4.216797-1.021153 6.32849-5.239655 12.080705-10.90625 14.546875l-.275391.121094-.259765.152344c-1.892851 1.10973-4.25008 1.803063-7.644532 2.251953-1.3324.17619-2.677553.301764-4.101562.433594l-.88086.083984c-4.02859-.27321-8.386523-1.794699-13.240234-4.630859.690437-3.33732 1.499947-6.426687 3.203125-8.810547 3.720904-4.64692 9.602278-7.806868 16.158203-8.673828 1.532161-.202615 3.059195-.278157 4.56836-.226563zm34.945813 83.453134c7.549735-2.56428 14.969653-8.10308 18.864734-16.74949.719728-4.54159-.08455-10.39225-4.045462-11.76095-6.504012-1.11483-12.810352 3.84602-18.374016 8.10525-4.787833 3.67599-9.439994 8.32592-15.039003 9.54405-3.466274-6.49969-6.53817-13.33205-9.097999-20.48181-1.395616-4.8802-2.189177-10.03674-3.458896-14.97678-.886103-3.30963-1.386691-7.02887-3.450189-9.5282-.89788 2.11039-.824757 4.40975-.937163 6.6152-.289434 11.10197-.525179 22.32219 1.253691 33.01455 1.368167 7.34395 3.556141 14.89732 8.62046 19.41862 2.604537 1.72858 5.782618 2.07998 8.838024 2.20089 5.7961.11395 11.194853-3.70512 16.825819-5.40133zm87.536839 57.96504c.46967 11.60732 7.50217 21.35201 12.73659 31.27165 17.78185 30.37977 37.99876 59.22639 57.13884 88.74769 3.29786 4.311 6.20243 9.0071 10.07622 12.8318.19873-1.4616.33422-3.0043-.38962-4.3567-3.85092-8.1304-6.87596-16.6176-9.34381-25.2625-4.68851-16.82641-11.5507-32.92973-17.23361-49.42689-5.16092-13.93145-9.86795-28.08591-16.76437-41.29304-4.71817-9.02627-9.79128-18.23353-17.58191-24.99721-3.24958-2.95172-8.07529-4.48186-12.28713-2.82335-5.04433 3.27738-6.77735 9.58366-6.3512 15.30855zm-17.33936 19.51257c-.54363 10.13434-6.41489 18.58933-10.8219 27.2115-14.92519 26.39217-31.815552 51.42577-47.836829 77.05727-2.749759 3.7389-5.184026 7.8174-8.396854 11.1271-.141922-1.2783-.231137-2.6269.37802-3.8024 3.253701-7.0703 5.838646-14.459 7.971234-21.9901 4.057141-14.6589 9.877477-28.66907 14.741217-43.03261 4.402512-12.12676 8.437842-24.45196 14.246022-35.9322 3.97354-7.84601 8.23914-15.84728 14.68771-21.69253 2.69158-2.5521 6.64924-3.84996 10.06206-2.36768 4.06955 2.90289 5.39608 8.4248 4.96932 13.42165zm9.71315-43.31343c-.0736.44121-.13775.88395-.18813 1.32952 2.94086-.637 5.72761-.0725 8.71459-1.1624 5.12524-1.79812 10.15612-5.20507 15.04709-8.80933 11.48399-8.03174 21.82715-21.46483 27.82715-36.74258 2.62623-6.99387 3.49783-14.94517 1.23023-20.53218-3.55585-9.053-9.89269-15.62662-17.90583-17.69245-4.28802-1.42925-9.75193-.65849-14.34589 3.64478-2.04169 2.11174-4.37617 4.9006-4.65938 8.19206-.19565 3.3859.95881 6.20693 2.70595 7.96386 4.17341 4.12717 10.27297 4.18443 14.87856 7.40696 2.87316 2.84704 6.10401 7.66936 3.41659 13.96643-3.20572 7.58346-7.87305 14.27023-12.43847 20.73824-5.73211 8.17237-12.78331 14.33256-19.89267 19.47858-1.4264 1.03327-2.90821 1.82945-4.38979 2.21851zM128.18555 16.13281c-4.58207-.024-9.25312.84902-13.18922 3.29788-5.47135 2.96219-9.55918 8.50196-10.18467 14.76233-.17272 2.86851.007 5.81171.67873 8.61397 1.85091 3.69545 1.47005 8.17467 3.73741 11.68683 1.41765 2.93006 3.78847.0776 5.48318-1.01921 1.95703-2.03053 4.58107-.13296 6.49897.91372 2.99744 2.0159 7.00848 2.75327 10.35714 1.17107 2.76691-1.39977 5.04349-4.04582 5.42904-7.20003.93627 2.02696 2.05117 3.85096 3.12097 5.34567.71773 1.13587 1.45586 2.04368 2.3119 2.92309 1.27507.99667 2.76529.85684 4.3292.62884 3.00008-.4436 5.93757-1.74862 7.70068-2.68586.53318-.28397-.71913-3.52295-1.12721-4.9891-.59738-1.82587-1.01807-3.71273-1.78882-5.4777-2.21268.36746-4.25367 1.49181-6.47289 1.92876-5.39921 1.82442-5.67891.57967-8.41172-7.20304.83276-3.14779 4.09818-5.24206 7.22834-5.44384 2.50461.28541 5.24255.55908 7.51581-.7697.87795-2.07376-2.20541-3.09475-3.12742-4.65717-3.05041-3.27072-5.5922-7.22721-9.73827-9.24753-3.16655-1.70037-6.77159-2.50707-10.35117-2.57898zm20.72837 32.22741c.45924 1.41079 1.03353 2.83991 1.20118 4.31055-3.96123 2.22537-4.43257 2.18515-5.71313-.78323-.56471-1.30673-1.09557-1.9931 1.09186-2.54165 1.17214-.22248 2.26576-.72485 3.42009-.98567z"/>
</svg>