<?xml version="1.0" encoding="UTF-8"?>
<svg id="a" data-name="Ebene 1" xmlns="http://www.w3.org/2000/svg" width="300" height="300" viewBox="0 0 300 300">
  <defs>
    <style>
      .b, .c {
        stroke-width: 0px;
      }

      .c {
        fill: #010101;
      }
    </style>
  </defs>
  <path class="c" d="m141,208.4c-40.9,23.5-46.1,25-64.2,70.9-1,1.5-2.5,9.7-4.4,6.1.3-29.7,5.7-63.7,31.1-82.6,7.8-6,16.1-11.3,24.7-15.8,14.1-6.7,25.3,12.2,12.8,21.4h0Z"/>
  <path class="c" d="m178.7,179.5c3.9,15.2,6.7,31.1,14.5,44.9,16,23.2,41.1,38.7,58.8,60.6.7.8-.3,2-1.2,1.4-27.2-17.5-60.7-27.7-80.7-54.3-9.5-13.9-14.9-30.2-18-46.6-2.5-17.2,21.4-22.6,26.5-6h0Z"/>
  <path class="c" d="m144.6,107.3c-42,23.1-55.6,27-92.9-4.5L137.4,24.3c2.8-2.6,2.1-6.2-.6-8.9-2.7-2.7-6.3-3.4-8.9-.6L48.9,101.2c-.2.2-.3.5-.1.8,24.6,47.1,65.1,54.3,106.8,23.4,10.2-7.8.9-23.4-10.9-18.1Z"/>
  <circle class="c" cx="123.2" cy="84.4" r="21.5"/>
  <circle class="b" cx="238" cy="70.9" r="8"/>
</svg>