<svg id="a7842f16-701b-48c9-a2c9-f597baa27807" data-name="Ebene 1" xmlns="http://www.w3.org/2000/svg" width="300" height="300" viewBox="0 0 300 300">
  <defs>
    <style>
      .a248eed8-a0f2-4a25-8564-d33b1a44b31e {
        fill: none;
        stroke: #000;
        stroke-linecap: round;
        stroke-miterlimit: 10;
        stroke-width: 6px;
      }
    </style>
  </defs>
  <g>
    <circle class="a248eed8-a0f2-4a25-8564-d33b1a44b31e" cx="225.141" cy="225.778" r="16.5"/>
    <path d="M205.156,115.538c3.855,11.051,5.873,22.581,7.819,34.088,2.363,13.413,4.336,27,6.289,40.494.7,5.635,1.571,11.86,2.157,17.491a1.477,1.477,0,0,1-2.831.723c-2.427-5.151-4.876-10.976-7.18-16.21-5.307-12.623-10.393-25.419-15.151-38.231-4.139-10.98-8.224-22.059-9.934-33.719C184.858,108.507,201.091,104.578,205.156,115.538Z"/>
    <path d="M140.531,94.39c-10.8-1.022-19.965-2.839-30.086-2.863-16.563.087-31.825,7.174-45.971,15.911-5.623,3.462-11.137,7.428-16.554,11.224a1.467,1.467,0,0,1-2.073-2.058c1.427-1.746,2.83-3.528,4.3-5.257,2.835-3.435,6.1-6.934,9.159-10.15C82.887,77.334,111.01,66.35,144.142,75.32,155.708,78.662,152.453,95.529,140.531,94.39Z"/>
    <path d="M60.033,244.7c16.05-11.768,33.448-21.649,47.238-35.694,14.073-13.943,11.516-31.408,17.463-50.357a10.842,10.842,0,0,1,21.2,4.325c-.677,5.083-1.353,10.273-2.279,15.623-4.8,33.447-24.215,46.656-53.26,58.778-9.583,3.965-19.258,7.411-28.98,10.643A1.8,1.8,0,0,1,60.033,244.7Z"/>
    <path d="M149.61,245.73c1.031-14.957,4.6-29.226,7.408-43.587.893-5.835,3.036-13.672.6-18.763-9.537-5.781-21.921-6.326-33.146-8.1-5.919-.859-12.076-1.693-18.105-3.015a13.773,13.773,0,0,1,3.785-27.222,180.361,180.361,0,0,1,35.915,6.055c18.575,5.018,37.7,16.075,32.852,38.763-1.961,9.312-6.328,17.689-10.3,25.853-5.229,10.466-10.474,20.682-15.164,31.274A2.036,2.036,0,0,1,149.61,245.73Z"/>
    <circle cx="188.111" cy="73.326" r="21.5"/>
  </g>
</svg>
