<?xml version="1.0" standalone="no"?>
<!DOCTYPE svg PUBLIC "-//W3C//DTD SVG 20010904//EN"
 "http://www.w3.org/TR/2001/REC-SVG-20010904/DTD/svg10.dtd">
<svg version="1.0" xmlns="http://www.w3.org/2000/svg"
 width="240.000000pt" height="240.000000pt" viewBox="0 0 240.000000 240.000000"
 preserveAspectRatio="xMidYMid meet">
<metadata>
Created by potrace 1.15, written by Peter Selinger 2001-2017
</metadata>
<g transform="translate(0.000000,240.000000) scale(0.100000,-0.100000)"
fill="#000000" stroke="none">
<path d="M1020 1801 l0 -170 30 -3 30 -3 -39 -42 -40 -42 -56 33 c-133 81
-324 69 -423 -27 -57 -54 -76 -101 -76 -192 0 -130 58 -231 183 -320 l70 -50
1 -175 c0 -119 4 -183 13 -200 17 -33 93 -74 192 -102 72 -21 101 -23 290 -23
189 0 218 2 288 23 88 25 151 54 185 85 21 20 22 26 22 206 l0 186 45 28 c24
16 74 60 110 99 95 103 125 208 90 325 -20 67 -80 134 -147 164 -100 45 -267
28 -362 -36 l-34 -23 -43 44 -43 44 32 0 32 0 0 170 0 170 -175 0 -175 0 0
-169z m125 69 c39 -43 50 -43 101 1 62 53 72 33 13 -27 l-43 -44 43 -44 c59
-60 49 -80 -13 -27 -26 22 -49 41 -51 41 -2 0 -25 -19 -51 -41 -62 -53 -72
-33 -13 27 l43 44 -42 43 c-44 45 -57 76 -24 58 9 -5 26 -19 37 -31z m115
-302 c18 -13 42 -35 53 -49 l19 -26 -28 -44 c-15 -24 -46 -84 -69 -132 l-42
-88 -23 55 c-12 30 -42 87 -66 126 -24 40 -44 77 -44 84 0 14 54 67 85 84 32
18 80 14 115 -10z m-377 -43 c68 -34 146 -113 184 -189 22 -43 73 -169 73
-180 0 -2 -26 -7 -57 -11 -99 -11 -180 -33 -263 -71 l-80 -37 -40 28 c-54 38
-142 134 -163 178 -58 122 -10 258 107 301 64 24 168 16 239 -19z m860 19 c65
-22 123 -87 132 -148 17 -108 -34 -212 -145 -298 -79 -62 -82 -62 -151 -28
-68 35 -173 64 -266 75 -62 7 -63 7 -57 33 3 15 26 70 51 122 100 208 267 302
436 244z m-385 -719 c150 -24 262 -67 262 -100 0 -14 -3 -14 -27 -1 -16 7 -66
26 -113 42 -82 27 -93 28 -280 28 -209 0 -268 -9 -377 -59 -41 -19 -53 -21
-53 -10 0 47 234 112 405 114 50 1 132 -6 183 -14z"/>
<path d="M1153 1550 c-12 -5 -29 -20 -38 -34 -16 -24 -15 -28 27 -102 24 -42
47 -77 53 -77 9 0 23 21 71 112 27 50 21 72 -26 96 -32 17 -54 18 -87 5z"/>
<path d="M625 1501 c-62 -38 -70 -55 -70 -150 0 -65 5 -95 19 -121 24 -44 124
-145 152 -152 12 -3 59 11 115 35 60 26 122 44 172 51 94 13 95 17 37 134 -47
94 -145 194 -207 211 -64 18 -184 14 -218 -8z"/>
<path d="M1610 1523 c-87 -9 -171 -67 -234 -161 -45 -68 -84 -167 -71 -180 3
-4 39 -12 80 -18 40 -7 110 -28 157 -48 46 -20 92 -36 101 -36 48 0 136 81
173 158 56 117 23 243 -70 271 -43 13 -95 18 -136 14z"/>
</g>
</svg>
